<svg xmlns="http://www.w3.org/2000/svg" viewBox="0 0 368.294 368.294">
  <g fill="#84BD93">
    <path d="M97.625 44.814zm2.541 1.586a17.22 17.22 0 0 1 0-.001zm12.292 37.853c.154.18.315.352.477.526-.16-.174-.323-.347-.477-.527zm2.248-24.498a7.51 7.51 0 0 1-.001 0zm1.059-2.855l-.01.083.01-.082zm-1.369 29.278c.134.114.258.238.395.348-.137-.11-.26-.235-.394-.348zm.96-27.696l-.02.045.02-.045zm22.487-27.199c.485.427.963.87 1.44 1.313-.477-.442-.955-.886-1.44-1.313zm-44.299 9.152c-.045-.07-.086-.14-.13-.21.045.07.085.14.13.21zm40.879-12.008c.412.324.815.67 1.223 1.004-.408-.333-.81-.68-1.223-1.003zM94.99 42.338a16.256 16.256 0 0 0-.001 0zm-2.69-4.271zm50.35-2.192zm4.115 80.931c.154.18.315.352.476.526-.16-.174-.32-.347-.475-.526zm-1.622-2.24c.05.085.092.176.144.26-.052-.084-.093-.176-.144-.26zm3.954 4.512c-.137-.11-.26-.234-.395-.347.135.114.258.238.395.348zm-5.247-7.166a18.325 18.325 0 0 0 0-.001zm7.882 8.871c-.218-.116-.438-.228-.65-.353.212.126.43.236.65.353z"/>
    <path d="M176.163 102.62c-7.147-28.386-18.406-50.87-32.92-66.112a75.14 75.14 0 0 0-4.75-3.604c-13.2-9.152-24.588-10.526-27.496-10.73C102.38 24.476 96.974 33.19 98.86 42.01a16.65 16.65 0 0 0 1.736 4.577c2.32 1.104 4.88 1.738 7.563 1.666 3.124-.055 5.926 1.754 7.125 4.613.338.805.51 1.646.557 2.487 3.093-.023 5.858 1.774 7.047 4.61a7.522 7.522 0 0 1-1.712 8.313c-4.23 4.088-6.022 9.953-4.795 15.69.35 1.636.953 3.166 1.735 4.58 2.195 1.043 4.607 1.675 7.144 1.675 1.186 0 2.383-.127 3.557-.38a16.74 16.74 0 0 0 5.466-2.218 7.505 7.505 0 0 1 4.007-1.158c1.878 0 3.562.7 4.998 2.064 1.432 1.358 2.13 3.175 2.13 5.042v-.002s.257-.008.296-.008c1.878 0 3.832.702 5.268 2.065 2.495 2.368 3.11 6.125 1.433 9.127a16.842 16.842 0 0 0-1.752 11.763c.35 1.637.965 3.168 1.747 4.582 2.196 1.044 4.613 1.676 7.15 1.676 1.186 0 2.386-.127 3.56-.38a17.37 17.37 0 0 0 11.065-7.764c2.296-3.685 2.998-7.952 1.976-12.015z"/>
    <path d="M145.77 94.558c-.003.052-.01.105-.014.157.005-.052.012-.105.015-.157zm-34.79-12.285c-.052-.083-.093-.174-.144-.258.052.084.092.175.144.258zm6.446 5.957c-.218-.116-.44-.228-.65-.353.212.126.43.237.65.353zm27.912 8.377a7.517 7.517 0 0 1 .001.001zM109.803 79.99zm35.827 15.578c-.03.143-.072.283-.11.424.037-.14.082-.28.11-.424z"/>
  </g>
  <g fill="#84BD93">
    <path d="M227.195 34.313zm1.71-1.625c.53-.49 1.06-.98 1.595-1.453-.536.47-1.065.962-1.595 1.453zm8.495-7.125c13.194-9.147 24.578-10.975 27.492-10.975h-.007c-2.82 0-14.243 1.793-27.488 10.975-.185.128-.362.274-.545.404.184-.13.363-.276.55-.404zm-20.21 94.877c-.2.118-.404.222-.608.33.204-.11.41-.212.608-.33zm7.007-7.937zm-4.661 6.273c-.11.094-.214.198-.328.29.114-.092.216-.196.328-.29zm1.539-1.473c.145-.157.29-.31.43-.474-.14.162-.285.317-.43.473zm51.795-97.415c-.11-.117-.226-.224-.337-.338.11.113.228.222.336.338zm1.95 2.542c-.046-.074-.082-.15-.13-.223-.047-.075-.113-.134-.162-.208.096.144.2.282.292.43zm1.005 1.866zm1.581 7.312c.032-2.063-.33-4.1-1.043-6.03.7 1.9 1.07 3.938 1.043 6.03zm-7.209-14.04c.12.085.248.163.367.25-.12-.087-.245-.165-.367-.25zm4.948 5.422c.164.285.33.57.478.865-.147-.294-.313-.58-.478-.866zm-7.515-6.908c.08.037.164.067.243.105-.08-.038-.162-.067-.243-.105zm-44.615 98.723c.03-.05.055-.105.086-.155-.03.05-.054.105-.085.155zm9.459-85.233c.48-.394.952-.8 1.437-1.18-.483.38-.957.786-1.436 1.18zm39.062 14.525a17.316 17.316 0 0 1-.001 0zm-3.54 2.373a17.324 17.324 0 0 0 0-.002zM269.43 42.012c1.886-8.82-3.52-17.535-12.137-19.84-2.908.206-14.296 1.58-27.496 10.732a75.12 75.12 0 0 0-4.765 3.614c-14.507 15.242-25.763 37.723-32.907 66.103-1.022 4.062-.322 8.33 1.97 12.014a17.387 17.387 0 0 0 11.066 7.766c1.175.252 2.372.38 3.557.38 2.54 0 4.952-.634 7.15-1.68a16.679 16.679 0 0 0 1.733-4.578 16.857 16.857 0 0 0-1.774-11.763 7.522 7.522 0 0 1 6.566-11.192c.037 0 .075.007.112.007.104-1.866.878-3.68 2.308-5.038a7.515 7.515 0 0 1 9.185-.91 16.79 16.79 0 0 0 5.466 2.22c1.177.252 2.374.38 3.56.38 2.54 0 4.952-.633 7.148-1.68a16.606 16.606 0 0 0 1.735-4.576c1.227-5.735-.565-11.6-4.795-15.69a7.517 7.517 0 0 1-1.71-8.313c1.187-2.834 3.95-4.63 7.042-4.61.046-.84.22-1.68.557-2.487 1.197-2.86 4.01-4.66 7.125-4.613 2.687.076 5.246-.553 7.56-1.65a16.624 16.624 0 0 0 1.744-4.595zm-12.11 40.244c.034-.055.06-.116.095-.17-.034.054-.06.115-.095.17zm17.348-41.712a21.93 21.93 0 0 0 0 .001zM258.5 79.957a14.644 14.644 0 0 0 .001.001zm17.497-41.902zm-3.317 4.967zm-20.26 13.933v-.005.005z"/>
    <path d="M223.285 97.348zm30.227-10.833c.12-.095.225-.203.342-.3-.117.097-.223.205-.342.3zm-30.776 9.359c-.024-.09-.052-.18-.072-.273.02.093.05.182.072.274zm32.642-11.119c.147-.16.295-.316.436-.48-.14.163-.29.32-.436.48zm-3.878 3.131c-.2.118-.41.224-.615.334.207-.11.414-.215.615-.334zm2.254-27.863c-.053-.078-.103-.158-.154-.238.05.08.1.16.154.238zm-31.23 34.62c0-.013-.003-.026-.004-.038 0 .012.003.025.004.038z"/>
  </g>
  <path d="M189.002 180.038zm.942.058zm9.808 1.329zm19.336 6.785c1.33.695 2.636 1.42 3.898 2.19-8.654-3.485-18.398-5.687-28.705-5.687-24.363 0-45.612 10.874-56.607 26.874h15.27c4.155 0 7.522 3.346 7.522 7.5s-3.367 7.5-7.52 7.5h-22.07c-1.126 4-1.176 9.287-1.176 10.965 0 4.44 1.826 8.035 3.202 14.035h27.494c4.154 0 7.52 2.346 7.52 6.5s-3.366 6.5-7.52 6.5h-27.03l6.965.015 13.56 22.985h19.96c4.153 0 7.52 3.846 7.52 8s-3.367 8-7.52 8h-10.294l20.586 32.504 56.286-78.45c.025-.034.054-.078.08-.11.02-.034.04-.076.062-.11 5.335-7.714 8.154-16.483 8.154-25.35.002-18.378-11.823-34.558-29.636-43.86zm-9.428-4.08zm4.513 1.75a71.995 71.995 0 0 0 0 .001zm-9.617-3.318a74.802 74.802 0 0 0-.001 0zm13.989 5.368a69.14 69.14 0 0 0-.001-.001z" fill="#CE593F"/>
  <path d="M287.318 14.032C282.683 6.874 275.538 1.952 267.2.166 266.71.06 265.6 0 265.6 0c-2.37 0-54.017.966-81.46 77.19C156.693.978 105.056 0 102.684 0c0 0-1.106.06-1.6.166C83.876 3.848 72.87 20.848 76.55 38.063c2.257 10.544 9.706 19.006 19.287 22.905-2.493 5.914-3.162 12.527-1.766 19.053 3.133 14.63 16.25 25.248 31.193 25.247.805 0 1.61-.03 2.416-.092-.057 2.467.174 4.95.698 7.397 3.132 14.63 16.25 25.248 31.193 25.247 2.243 0 4.5-.24 6.705-.713 3.692-.79 7.186-2.244 10.348-4.222v32.257c-40.39 3.212-72.102 31.995-72.102 66.925 0 11.95 3.75 23.682 10.84 33.93.045.063.097.116.142.178.047.07.087.143.137.212l60.983 84.974v9.413a7.52 7.52 0 0 0 7.52 7.52 7.52 7.52 0 0 0 7.522-7.52v-9.41l60.985-84.976c.047-.066.085-.135.13-.2.054-.074.113-.14.165-.216 7.08-10.24 10.824-21.964 10.824-33.903 0-34.93-31.716-63.713-72.104-66.925v-32.257c3.162 1.977 6.657 3.432 10.35 4.222 2.207.472 4.463.712 6.704.712 14.942 0 28.06-10.62 31.192-25.247.524-2.45.755-4.932.7-7.398.805.06 1.61.092 2.416.092 14.943 0 28.06-10.617 31.192-25.247 1.395-6.526.727-13.138-1.767-19.05 9.58-3.9 17.03-12.36 19.287-22.907 1.78-8.338.212-16.873-4.422-24.03zm-27.19 34.224c-3.116-.047-5.93 1.754-7.127 4.613a7.521 7.521 0 0 0 1.712 8.313c4.23 4.087 6.023 9.953 4.796 15.69-1.656 7.736-8.588 13.352-16.483 13.352-1.186 0-2.383-.127-3.56-.38A16.776 16.776 0 0 1 234 87.626a7.515 7.515 0 0 0-9.186.91 7.52 7.52 0 0 0-1.387 9.125 16.858 16.858 0 0 1 1.773 11.763c-1.656 7.737-8.588 13.353-16.483 13.353-1.186 0-2.383-.127-3.557-.38a17.37 17.37 0 0 1-11.065-7.765c-2.294-3.685-2.994-7.952-1.97-12.013 9.062-36.002 24.717-62.563 45.27-76.815 13.245-9.183 24.668-10.535 27.488-10.732a16.763 16.763 0 0 1 9.806 7.133 16.773 16.773 0 0 1 2.336 12.708c-1.682 7.872-8.82 13.57-16.9 13.342zm-19.556 209.16c-.023.033-.04.068-.063.102-.027.033-.055.065-.08.1l-56.286 78.426-23.363-32.553h13.07c4.154 0 7.52-3.366 7.52-7.52s-3.366-7.52-7.52-7.52h-23.864l-16.62-23.16h27.03a7.52 7.52 0 1 0 .002-15.04h-36.773c-2.67-5.793-4.063-11.963-4.063-18.185 0-1.678.108-3.337.3-4.977h33.083a7.52 7.52 0 0 0 7.52-7.52 7.52 7.52 0 0 0-7.52-7.522H124.51c9.735-18.872 32.796-32.174 59.633-32.174 35.61 0 64.582 23.413 64.582 52.192 0 8.87-2.82 17.638-8.153 25.352zM159.57 122.778c-7.896 0-14.828-5.615-16.484-13.354a16.857 16.857 0 0 1 1.774-11.763 7.52 7.52 0 0 0-6.567-11.19c-1.383 0-2.774.38-4.007 1.158a16.803 16.803 0 0 1-5.467 2.22c-1.175.25-2.372.378-3.558.378-7.895 0-14.827-5.615-16.483-13.352-1.228-5.736.564-11.602 4.794-15.69a7.516 7.516 0 0 0 1.71-8.314c-1.198-2.86-4-4.668-7.125-4.613-8.036.214-15.218-5.47-16.902-13.34-1.887-8.82 3.52-17.536 12.136-19.84 2.907.205 14.296 1.58 27.496 10.73 20.554 14.25 36.21 40.813 45.273 76.812 1.02 4.062.32 8.33-1.973 12.015a17.378 17.378 0 0 1-11.063 7.765c-1.174.25-2.37.378-3.557.378z" fill="#3F2D20"/>
</svg>
