<?xml version="1.0" encoding="UTF-8" standalone="no"?>
<!-- Created with Inkscape (http://www.inkscape.org/) -->

<svg
   xmlns:dc="http://purl.org/dc/elements/1.1/"
   xmlns:cc="http://creativecommons.org/ns#"
   xmlns:rdf="http://www.w3.org/1999/02/22-rdf-syntax-ns#"
   xmlns:svg="http://www.w3.org/2000/svg"
   xmlns="http://www.w3.org/2000/svg"
   xmlns:xlink="http://www.w3.org/1999/xlink"
   xmlns:sodipodi="http://sodipodi.sourceforge.net/DTD/sodipodi-0.dtd"
   xmlns:inkscape="http://www.inkscape.org/namespaces/inkscape"
   width="40.000172mm"
   height="40.000172mm"
   viewBox="0 0 40.000172 40.000172"
   version="1.1"
   id="svg1211"
   inkscape:version="0.92.2 2405546, 2018-03-11"
   sodipodi:docname="OpenVegeMap.svg">
  <defs
     id="defs1205">
    <linearGradient
       inkscape:collect="always"
       xlink:href="#linearGradient1025"
       id="linearGradient2444"
       gradientUnits="userSpaceOnUse"
       gradientTransform="matrix(0.98765432,0,0,0.98765432,136.93948,47.491553)"
       x1="53.773659"
       y1="352.29633"
       x2="13.138442"
       y2="312.07227" />
    <linearGradient
       id="linearGradient1025"
       inkscape:collect="always">
      <stop
         id="stop1021"
         offset="0"
         style="stop-color:#000000;stop-opacity:0.5" />
      <stop
         id="stop1023"
         offset="1"
         style="stop-color:#119352;stop-opacity:0;" />
    </linearGradient>
    <linearGradient
       inkscape:collect="always"
       xlink:href="#linearGradient2089"
       id="linearGradient2446"
       gradientUnits="userSpaceOnUse"
       gradientTransform="matrix(0.25062013,0,0,0.25062013,153.61687,184.39719)"
       x1="21.213203"
       y1="705.32666"
       x2="142.83557"
       y2="838.26276" />
    <linearGradient
       inkscape:collect="always"
       id="linearGradient2089">
      <stop
         style="stop-color:#000000;stop-opacity:1"
         offset="0"
         id="stop2085" />
      <stop
         style="stop-color:#119352;stop-opacity:0;"
         offset="1"
         id="stop2087" />
    </linearGradient>
    <linearGradient
       inkscape:collect="always"
       xlink:href="#linearGradient1320"
       id="linearGradient2448"
       gradientUnits="userSpaceOnUse"
       gradientTransform="matrix(1.2521863,0,0,1.2521863,-250.9366,-622.14507)"
       x1="58.49469"
       y1="193.96344"
       x2="65.63958"
       y2="201.03476" />
    <linearGradient
       id="linearGradient1320"
       inkscape:collect="always">
      <stop
         id="stop1316"
         offset="0"
         style="stop-color:#999999;stop-opacity:1" />
      <stop
         id="stop1318"
         offset="1"
         style="stop-color:#ffffff;stop-opacity:0;" />
    </linearGradient>
  </defs>
  <sodipodi:namedview
     id="base"
     pagecolor="#ffffff"
     bordercolor="#666666"
     borderopacity="1.0"
     inkscape:pageopacity="0.0"
     inkscape:pageshadow="2"
     inkscape:zoom="2.8"
     inkscape:cx="43.989418"
     inkscape:cy="67.982281"
     inkscape:document-units="mm"
     inkscape:current-layer="layer1"
     showgrid="false"
     fit-margin-top="0"
     fit-margin-left="0"
     fit-margin-right="0"
     fit-margin-bottom="0"
     inkscape:window-width="1366"
     inkscape:window-height="706"
     inkscape:window-x="0"
     inkscape:window-y="0"
     inkscape:window-maximized="1" />
  <metadata
     id="metadata1208">
    <rdf:RDF>
      <cc:Work
         rdf:about="">
        <dc:format>image/svg+xml</dc:format>
        <dc:type
           rdf:resource="http://purl.org/dc/dcmitype/StillImage" />
        <dc:title></dc:title>
      </cc:Work>
    </rdf:RDF>
  </metadata>
  <g
     inkscape:label="Capa 1"
     inkscape:groupmode="layer"
     id="layer1"
     transform="translate(-44.255865,-7.1249158)">
    <g
       transform="translate(-105.81813,-348.35742)"
       id="g2466"
       inkscape:export-xdpi="253"
       inkscape:export-ydpi="253">
      <circle
         style="opacity:1;fill:#119352;fill-opacity:1;fill-rule:evenodd;stroke:none;stroke-width:3.21853042;stroke-linecap:round;stroke-linejoin:round;stroke-miterlimit:4;stroke-dasharray:none;stroke-dashoffset:0;stroke-opacity:1;paint-order:stroke markers fill"
         id="circle2426"
         cx="170.07408"
         cy="375.48242"
         r="20" />
      <circle
         r="19.753086"
         cy="375.48242"
         cx="170.07408"
         id="circle2428"
         style="opacity:1;fill:#119352;fill-opacity:1;fill-rule:evenodd;stroke:url(#linearGradient2444);stroke-width:0.49399999;stroke-linecap:round;stroke-linejoin:round;stroke-miterlimit:4;stroke-dasharray:none;stroke-dashoffset:0;stroke-opacity:1;paint-order:stroke markers fill" />
      <path
         id="path2430"
         d="m 170.07517,360.65314 c -3.06395,-3e-5 -6.00217,1.21734 -8.1687,3.38386 -2.16653,2.16652 -3.3839,5.10473 -3.38388,8.16865 0.005,3.14743 1.29397,6.15656 3.56891,8.33165 l 7.98367,9.77467 0.0259,-0.0313 0.25502,0.31229 0.0254,-0.0313 0.25356,0.31033 0.0255,-0.0313 0.25258,0.30936 0.0254,-0.0308 0.25062,0.30691 0.025,-0.0308 0.25014,0.30593 0.025,-0.0308 0.24866,0.30446 0.025,-0.0304 0.2472,0.30251 0.025,-0.0303 0.24572,0.30104 0.0245,-0.0303 0.24524,0.30006 0.0245,-0.0299 0.24328,0.29761 0.0245,-0.0299 0.2423,0.29663 0.0245,-0.0298 0.24083,0.29516 0.024,-0.0294 0.23936,0.29272 0.024,-0.0294 0.23839,0.29173 0.024,-0.0294 0.23691,0.29027 0.024,-0.0294 0.23594,0.28929 0.0235,-0.0289 0.0201,0.0245 a 20,20 0 0 0 15.33442,-19.0579 c -0.0254,-0.0271 -0.0505,-0.0544 -0.0769,-0.0808 -0.0363,-0.0363 -0.0744,-0.0704 -0.11112,-0.10622 -0.0358,-0.0368 -0.0699,-0.0748 -0.10622,-0.11111 -0.0366,-0.0366 -0.0751,-0.0707 -0.11209,-0.10671 -0.036,-0.037 -0.0701,-0.0755 -0.10671,-0.11209 -0.0368,-0.0368 -0.0758,-0.0709 -0.11308,-0.1072 -0.0363,-0.0373 -0.0704,-0.0763 -0.10719,-0.11308 -0.0371,-0.0371 -0.0761,-0.0717 -0.11357,-0.10817 -0.0365,-0.0375 -0.0711,-0.0765 -0.10818,-0.11356 -0.0372,-0.0372 -0.0764,-0.072 -0.11405,-0.10867 -0.0367,-0.0377 -0.0714,-0.0768 -0.10866,-0.11406 -0.0375,-0.0375 -0.0771,-0.0722 -0.11504,-0.10915 -0.0369,-0.0379 -0.0717,-0.0776 -0.10915,-0.11503 -0.0373,-0.0373 -0.0768,-0.072 -0.11455,-0.10867 -0.0377,-0.0388 -0.0733,-0.0792 -0.1116,-0.11748 -0.038,-0.038 -0.0781,-0.0732 -0.1165,-0.11062 -0.0374,-0.0384 -0.0727,-0.0785 -0.11063,-0.1165 -0.0382,-0.0382 -0.0783,-0.074 -0.11699,-0.11161 -0.0376,-0.0387 -0.0734,-0.0788 -0.1116,-0.11699 -0.0384,-0.0385 -0.079,-0.0742 -0.11797,-0.11209 -0.0378,-0.0389 -0.0736,-0.0795 -0.11209,-0.11797 -0.0386,-0.0386 -0.0794,-0.0746 -0.11846,-0.11258 -0.038,-0.0391 -0.074,-0.0798 -0.11259,-0.11846 -0.0384,-0.0384 -0.079,-0.0743 -0.11796,-0.11209 -0.0388,-0.0399 -0.0756,-0.0815 -0.11504,-0.12091 -0.0392,-0.0392 -0.0802,-0.076 -0.11992,-0.11454 -0.0386,-0.0397 -0.0754,-0.0807 -0.11454,-0.11992 -0.0393,-0.0394 -0.0806,-0.0763 -0.12042,-0.11503 -0.0387,-0.0399 -0.0757,-0.0811 -0.11503,-0.12042 -0.0396,-0.0396 -0.0813,-0.0765 -0.1214,-0.11552 -0.039,-0.0401 -0.0759,-0.0818 -0.11552,-0.12139 -0.0398,-0.0399 -0.082,-0.0768 -0.12237,-0.11601 -0.0392,-0.0404 -0.0762,-0.0825 -0.11601,-0.12238 -0.0401,-0.0401 -0.0822,-0.0776 -0.12286,-0.11698 -0.0394,-0.0406 -0.0769,-0.0828 -0.11699,-0.12287 -0.0403,-0.0403 -0.083,-0.0778 -0.12385,-0.11748 -0.0397,-0.0409 -0.0771,-0.0835 -0.11747,-0.12384 -0.0406,-0.0406 -0.0832,-0.0785 -0.12434,-0.11845 -0.0399,-0.0411 -0.0779,-0.0838 -0.11845,-0.12434 -0.0413,-0.0413 -0.0849,-0.0798 -0.12678,-0.12041 -0.0396,-0.0408 -0.0772,-0.0835 -0.11748,-0.12384 -0.041,-0.041 -0.0843,-0.0791 -0.1258,-0.11944 -0.0403,-0.0415 -0.0784,-0.0848 -0.11944,-0.1258 -0.0412,-0.0412 -0.0845,-0.0799 -0.12629,-0.12041 -0.0405,-0.0418 -0.0792,-0.0851 -0.12042,-0.12629 -0.0416,-0.0416 -0.0851,-0.0805 -0.12727,-0.12139 -0.0409,-0.0421 -0.0798,-0.0857 -0.12139,-0.12727 -0.0417,-0.0417 -0.0855,-0.0809 -0.12776,-0.12189 -0.041,-0.0423 -0.0802,-0.086 -0.12188,-0.12775 -0.042,-0.042 -0.0862,-0.0811 -0.12874,-0.12238 -0.0413,-0.0426 -0.0804,-0.0868 -0.12237,-0.12873 -0.0422,-0.0422 -0.0864,-0.0819 -0.12923,-0.12336 -0.0415,-0.0428 -0.0811,-0.087 -0.12335,-0.12922 -0.0424,-0.0424 -0.0868,-0.0822 -0.12972,-0.12385 -0.0417,-0.043 -0.0815,-0.0873 -0.12384,-0.12971 -0.0427,-0.0427 -0.0874,-0.0828 -0.13069,-0.12482 -0.042,-0.0433 -0.0821,-0.088 -0.12483,-0.1307 -0.0429,-0.0429 -0.0877,-0.0832 -0.13118,-0.12531 -0.0421,-0.0435 -0.0824,-0.0883 -0.12531,-0.13118 -0.0432,-0.0432 -0.0888,-0.0834 -0.13265,-0.1258 -0.0425,-0.0438 -0.0826,-0.0895 -0.12581,-0.13265 -0.0434,-0.0434 -0.0892,-0.0837 -0.13314,-0.12629 -0.0426,-0.044 -0.0829,-0.0898 -0.12629,-0.13314 -0.0436,-0.0436 -0.0894,-0.0844 -0.13363,-0.12727 -0.0428,-0.0442 -0.0837,-0.09 -0.12727,-0.13363 -0.0439,-0.0439 -0.0901,-0.0847 -0.13461,-0.12776 -0.0431,-0.0445 -0.0839,-0.0908 -0.12776,-0.13461 -0.0441,-0.0441 -0.0904,-0.0854 -0.1351,-0.12874 -0.0433,-0.0447 -0.0846,-0.091 -0.12874,-0.13509 -0.0443,-0.0444 -0.0911,-0.0857 -0.13608,-0.12923 -0.0435,-0.045 -0.0849,-0.0917 -0.12922,-0.13608 -0.0445,-0.0445 -0.0914,-0.086 -0.13657,-0.12972 -0.0437,-0.0451 -0.0852,-0.0921 -0.12972,-0.13656 -0.0448,-0.0448 -0.0921,-0.0867 -0.13755,-0.1307 -0.044,-0.0455 -0.0859,-0.0927 -0.13069,-0.13755 -0.045,-0.045 -0.0924,-0.087 -0.13804,-0.13118 -0.0442,-0.0457 -0.0862,-0.093 -0.13118,-0.13804 -0.0452,-0.0452 -0.0926,-0.0877 -0.13853,-0.13216 -0.0444,-0.0459 -0.0869,-0.0933 -0.13217,-0.13853 -0.0455,-0.0455 -0.0933,-0.088 -0.1395,-0.13265 -0.0447,-0.0462 -0.0872,-0.094 -0.13265,-0.1395 -0.0457,-0.0457 -0.0936,-0.0888 -0.14,-0.13364 -0.0449,-0.0464 -0.0879,-0.0943 -0.13363,-0.13999 -0.046,-0.046 -0.0943,-0.089 -0.14098,-0.13412 -0.0451,-0.0467 -0.0881,-0.095 -0.13412,-0.14098 -0.0462,-0.0462 -0.0945,-0.0897 -0.14147,-0.1351 -0.0454,-0.0469 -0.0889,-0.0952 -0.13509,-0.14146 -0.0475,-0.0475 -0.0976,-0.0919 -0.14587,-0.13853 -0.0445,-0.046 -0.0869,-0.0937 -0.13217,-0.13901 -0.045,-0.045 -0.0924,-0.087 -0.13804,-0.13118 -0.0474,-0.0491 -0.0926,-0.1 -0.14097,-0.14832 -0.0469,-0.0469 -0.0963,-0.0906 -0.14391,-0.13657 -0.046,-0.0476 -0.0897,-0.097 -0.13657,-0.14391 -2.16653,-2.16651 -5.10525,-3.38389 -8.16918,-3.38386 z"
         style="opacity:1;fill:url(#linearGradient2446);fill-opacity:1;fill-rule:evenodd;stroke:none;stroke-width:0.64908242;stroke-linecap:round;stroke-linejoin:round;stroke-miterlimit:4;stroke-dasharray:none;stroke-dashoffset:0;stroke-opacity:0;paint-order:stroke markers fill"
         inkscape:connector-curvature="0" />
      <path
         inkscape:connector-curvature="0"
         style="opacity:1;fill:#ff6600;fill-opacity:1;fill-rule:evenodd;stroke:none;stroke-width:0.64908236;stroke-linecap:round;stroke-linejoin:round;stroke-miterlimit:4;stroke-dasharray:none;stroke-dashoffset:0;stroke-opacity:0;paint-order:stroke markers fill"
         d="m 170.07483,360.65293 a 11.552426,11.552426 0 0 0 -11.55234,11.55277 11.552426,11.552426 0 0 0 3.56983,8.33181 l 7.98251,9.77408 7.94581,-9.7281 a 11.552426,11.552426 0 0 0 3.60703,-8.37779 11.552426,11.552426 0 0 0 -11.55284,-11.55277 z"
         id="path2432" />
      <circle
         transform="scale(-1)"
         style="opacity:1;fill:#ffffff;fill-opacity:1;fill-rule:evenodd;stroke:none;stroke-width:0.93115652;stroke-linecap:round;stroke-linejoin:round;stroke-miterlimit:4;stroke-dasharray:none;stroke-dashoffset:0;stroke-opacity:0;paint-order:stroke markers fill"
         id="circle2434"
         cx="-170.07408"
         cy="-372.20557"
         r="9.4147968" />
      <circle
         transform="scale(-1)"
         r="9.415"
         cy="-372.20557"
         cx="-170.07408"
         id="circle2436"
         style="opacity:0.68399999;fill:url(#linearGradient2448);fill-opacity:1;fill-rule:evenodd;stroke:none;stroke-width:0.93117654;stroke-linecap:round;stroke-linejoin:round;stroke-miterlimit:4;stroke-dasharray:none;stroke-dashoffset:0;stroke-opacity:0;paint-order:stroke markers fill" />
      <g
         transform="matrix(0.00403003,0,0,-0.00403003,163.20998,380.6291)"
         style="fill:#000000;stroke:none"
         id="g2440">
        <path
           inkscape:connector-curvature="0"
           d="m 3190,3550 c -80,-21 -249,-59 -375,-84 -321,-63 -372,-82 -515,-188 -203,-151 -345,-443 -344,-708 1,-101 16,-173 33,-154 4,5 18,34 30,64 61,147 238,371 389,492 77,62 232,123 232,91 0,-11 -53,-77 -116,-143 -59,-63 -79,-89 -190,-250 -115,-169 -265,-471 -366,-740 -98,-261 -170,-469 -218,-625 -81,-267 -154,-478 -167,-482 -16,-6 -60,137 -152,492 -143,556 -204,747 -350,1095 -100,237 -232,427 -500,718 -147,161 -356,315 -482,357 -82,28 -89,14 -27,-55 292,-329 461,-573 640,-920 151,-295 255,-588 444,-1260 48,-172 154,-610 188,-780 38,-189 80,-374 91,-403 4,-9 19,-21 34,-25 34,-9 198,-9 233,0 52,15 62,56 134,528 48,319 89,510 171,795 139,486 287,842 377,900 13,8 77,24 144,35 260,43 469,158 617,341 99,122 125,212 150,512 13,159 21,204 51,299 19,62 32,118 30,125 -7,18 -23,16 -186,-27 z"
           style="fill:#017f00"
           id="path2438" />
      </g>
    </g>
  </g>
</svg>
