<svg xmlns="http://www.w3.org/2000/svg" xmlns:xlink="http://www.w3.org/1999/xlink" width="151.182" height="151.182" viewBox="0 0 40 40">
  <defs>
    <linearGradient xlink:href="#a" id="d" gradientUnits="userSpaceOnUse" gradientTransform="matrix(.98765 0 0 .98765 136.94 47.492)" x1="53.774" y1="352.296" x2="13.138" y2="312.072"/>
    <linearGradient id="a">
      <stop offset="0" stop-opacity=".5"/>
      <stop offset="1" stop-color="#119352" stop-opacity="0"/>
    </linearGradient>
    <linearGradient xlink:href="#b" id="e" gradientUnits="userSpaceOnUse" gradientTransform="translate(153.617 184.397) scale(.25062)" x1="21.213" y1="705.327" x2="142.836" y2="838.263"/>
    <linearGradient id="b">
      <stop offset="0"/>
      <stop offset="1" stop-color="#119352" stop-opacity="0"/>
    </linearGradient>
    <linearGradient xlink:href="#c" id="f" gradientUnits="userSpaceOnUse" gradientTransform="matrix(1.25219 0 0 1.25219 -250.937 -622.145)" x1="58.495" y1="193.963" x2="65.64" y2="201.035"/>
    <linearGradient id="c">
      <stop offset="0" stop-color="#999"/>
      <stop offset="1" stop-color="#fff" stop-opacity="0"/>
    </linearGradient>
  </defs>
  <g transform="translate(-150.074 -355.482)">
    <circle cx="170.074" cy="375.482" r="20" fill="#119352" fill-rule="evenodd" paint-order="stroke markers fill"/>
    <circle r="19.753" cy="375.482" cx="170.074" fill="#119352" fill-rule="evenodd" stroke="url(#d)" stroke-width=".494" stroke-linecap="round" stroke-linejoin="round" paint-order="stroke markers fill"/>
    <path d="M170.075 360.653a11.552 11.552 0 0 0-11.552 11.553 11.552 11.552 0 0 0 3.569 8.331l7.983 9.775.026-.031.255.312.025-.031.254.31.026-.031.252.31.026-.032.25.307.025-.03.25.305.025-.03.249.304.025-.03.247.302.025-.03.246.3.024-.03.246.3.024-.03.243.298.025-.03.242.297.025-.03.24.295.025-.029.239.293.024-.03.238.292.024-.03.237.29.024-.029.236.29.024-.03.02.025a20 20 0 0 0 15.334-19.058c-.025-.027-.05-.054-.077-.08-.036-.037-.074-.07-.11-.107-.037-.036-.07-.074-.107-.11-.037-.037-.075-.071-.112-.107-.036-.037-.07-.076-.107-.112-.037-.037-.076-.071-.113-.108-.036-.037-.07-.076-.107-.113-.037-.037-.076-.071-.114-.108-.036-.037-.07-.076-.108-.113-.037-.038-.076-.072-.114-.11-.037-.037-.071-.076-.109-.113-.037-.038-.077-.072-.115-.11-.037-.037-.071-.077-.109-.114-.037-.038-.077-.072-.114-.11-.038-.038-.074-.078-.112-.117-.038-.038-.078-.073-.116-.11-.038-.039-.073-.079-.111-.117-.038-.038-.078-.074-.117-.111-.038-.039-.073-.08-.112-.117-.038-.039-.079-.074-.118-.112-.037-.04-.073-.08-.112-.118-.038-.039-.08-.075-.118-.113-.038-.039-.074-.08-.113-.118-.038-.039-.079-.075-.118-.112-.039-.04-.075-.082-.115-.121-.039-.04-.08-.076-.12-.115l-.114-.12c-.04-.04-.08-.076-.12-.115l-.116-.12c-.04-.04-.081-.077-.121-.116-.04-.04-.076-.082-.116-.121-.04-.04-.082-.077-.122-.116-.04-.04-.076-.083-.116-.123-.04-.04-.082-.077-.123-.117-.04-.04-.077-.082-.117-.122-.04-.04-.083-.078-.124-.118-.04-.04-.077-.083-.117-.124-.04-.04-.083-.078-.125-.118-.04-.041-.077-.084-.118-.125l-.127-.12c-.04-.04-.077-.083-.117-.124-.041-.04-.085-.079-.126-.12-.04-.04-.078-.084-.12-.125-.04-.041-.084-.08-.126-.12-.04-.042-.079-.086-.12-.127l-.127-.121c-.041-.042-.08-.086-.122-.127-.042-.042-.085-.081-.128-.122l-.121-.128c-.042-.042-.087-.081-.13-.122-.04-.043-.08-.087-.122-.13l-.129-.122c-.041-.043-.08-.087-.123-.13l-.13-.124c-.042-.043-.081-.087-.124-.13-.042-.042-.087-.082-.13-.124-.042-.043-.083-.088-.125-.13-.043-.044-.088-.084-.131-.126-.043-.044-.083-.088-.126-.131-.043-.043-.089-.084-.132-.126-.043-.044-.083-.09-.126-.133-.044-.043-.09-.083-.133-.126-.043-.044-.083-.09-.127-.133-.043-.044-.089-.085-.133-.127-.043-.045-.084-.09-.128-.134-.043-.044-.09-.085-.134-.128-.043-.044-.084-.09-.128-.134-.044-.045-.09-.086-.135-.13-.043-.044-.085-.09-.129-.134-.044-.045-.09-.086-.136-.13l-.129-.136-.137-.13c-.043-.044-.085-.091-.13-.136-.044-.045-.091-.087-.137-.13-.044-.046-.086-.093-.13-.138-.046-.045-.093-.087-.139-.131-.044-.046-.086-.093-.13-.138-.046-.046-.093-.088-.14-.132-.044-.046-.086-.094-.131-.139l-.14-.133c-.045-.046-.087-.094-.133-.14-.045-.045-.093-.088-.14-.133l-.133-.14c-.046-.046-.095-.089-.141-.134-.045-.047-.088-.095-.134-.14-.047-.047-.095-.09-.142-.136-.045-.047-.089-.095-.135-.141-.047-.048-.098-.092-.146-.139-.044-.046-.087-.094-.132-.139-.045-.045-.092-.087-.138-.131-.047-.05-.093-.1-.141-.148-.047-.047-.096-.091-.144-.137-.046-.048-.09-.097-.136-.144a11.553 11.553 0 0 0-8.17-3.384z" fill="url(#e)" fill-rule="evenodd" paint-order="stroke markers fill"/>
    <path d="M170.075 360.653a11.552 11.552 0 0 0-11.553 11.553 11.552 11.552 0 0 0 3.57 8.332l7.983 9.774 7.946-9.729a11.552 11.552 0 0 0 3.607-8.377 11.552 11.552 0 0 0-11.553-11.553z" fill="#f60" fill-rule="evenodd" paint-order="stroke markers fill"/>
    <circle transform="scale(-1)" cx="-170.074" cy="-372.206" r="9.415" fill="#fff" fill-rule="evenodd" paint-order="stroke markers fill"/>
    <circle transform="scale(-1)" r="9.415" cy="-372.206" cx="-170.074" opacity=".684" fill="url(#f)" fill-rule="evenodd" paint-order="stroke markers fill"/>
    <path d="M176.066 366.322c-.323.085-1.004.238-1.511.339-1.294.254-1.5.33-2.076.758-.818.608-1.39 1.785-1.386 2.853.004.407.064.697.133.62.016-.02.072-.136.12-.257.246-.593.96-1.496 1.568-1.983.31-.25.935-.496.935-.367 0 .044-.213.31-.467.576-.238.254-.319.36-.766 1.008-.463.681-1.068 1.898-1.475 2.982a45.813 45.813 0 0 0-.878 2.519c-.327 1.076-.621 1.926-.673 1.942-.065.025-.242-.552-.613-1.982-.576-2.241-.822-3.01-1.41-4.413-.404-.955-.936-1.721-2.016-2.894-.592-.649-1.434-1.27-1.942-1.439-.33-.112-.359-.056-.109.222 1.177 1.326 1.858 2.31 2.58 3.708.608 1.189 1.027 2.37 1.789 5.078.193.693.62 2.458.757 3.143.153.762.323 1.507.367 1.624.016.036.077.085.137.1.137.037.798.037.94 0 .209-.06.249-.225.54-2.127.193-1.286.358-2.055.688-3.204.56-1.958 1.157-3.393 1.52-3.627.052-.032.31-.097.58-.141 1.048-.173 1.89-.637 2.486-1.374.4-.492.504-.855.605-2.064.052-.64.085-.822.205-1.205.077-.25.13-.475.121-.503-.028-.073-.092-.065-.75.108z" fill="#017f00"/>
  </g>
</svg>
