<svg xmlns="http://www.w3.org/2000/svg" viewBox="0 0 368.294 368.294">
  <g fill="#84BD93">
    <path d="M97.625 44.814c-.2-.152-.396-.31-.59-.47.194.16.388.318.59.47zM100.166 46.4c-.278-.143-.553-.29-.823-.448.27.157.544.304.823.447zM112.458 84.253c.154.18.315.352.477.526-.16-.174-.323-.347-.477-.527zM114.706 59.755c-.06.097-.122.195-.187.29.064-.095.125-.192.186-.29zM115.765 56.9l-.01.083.01-.082zM114.396 86.178c.134.114.258.238.395.348-.137-.11-.26-.235-.394-.348zM115.356 58.482l-.02.045.02-.045zM137.843 31.283c.485.427.963.87 1.44 1.313-.477-.442-.955-.886-1.44-1.313zM93.544 40.435c-.045-.07-.086-.14-.13-.21.045.07.085.14.13.21zM134.423 28.427c.412.324.815.67 1.223 1.004-.408-.333-.81-.68-1.223-1.003zM94.99 42.338c.176.206.358.404.545.602-.187-.196-.37-.397-.546-.602zM92.3 38.067c-.092-.207-.178-.417-.26-.63.082.214.168.422.26.63zM142.65 35.875c-.492-.507-.987-1.005-1.487-1.495.5.49.995.988 1.487 1.495zM146.765 116.806c.154.18.315.352.476.526-.16-.174-.32-.347-.475-.526zM145.143 114.566c.05.085.092.176.144.26-.052-.084-.093-.176-.144-.26zM149.097 119.078c-.137-.11-.26-.234-.395-.347.135.114.258.238.395.348zM143.85 111.912c.083.212.17.42.26.627-.09-.207-.177-.416-.26-.628zM151.732 120.783c-.218-.116-.438-.228-.65-.353.212.126.43.236.65.353z"/>
    <path d="M176.163 102.62c-7.147-28.386-18.406-50.87-32.92-66.112-1.554-1.272-3.134-2.483-4.75-3.604-13.2-9.152-24.588-10.526-27.496-10.73C102.38 24.476 96.974 33.19 98.86 42.01c.35 1.634.954 3.164 1.736 4.577 2.32 1.104 4.88 1.738 7.563 1.666 3.124-.055 5.926 1.754 7.125 4.613.338.805.51 1.646.557 2.487 3.093-.023 5.858 1.774 7.047 4.61 1.197 2.857.517 6.158-1.712 8.313-4.23 4.088-6.022 9.953-4.795 15.69.35 1.636.953 3.166 1.735 4.58 2.195 1.043 4.607 1.675 7.144 1.675 1.186 0 2.383-.127 3.557-.38 1.954-.416 3.792-1.162 5.466-2.218 1.233-.777 2.624-1.158 4.007-1.158 1.878 0 3.562.7 4.998 2.064 1.432 1.358 2.13 3.175 2.13 5.042v-.002s.257-.008.296-.008c1.878 0 3.832.702 5.268 2.065 2.495 2.368 3.11 6.125 1.433 9.127-2.003 3.58-2.61 7.758-1.752 11.763.35 1.637.965 3.168 1.747 4.582 2.196 1.044 4.613 1.676 7.15 1.676 1.186 0 2.386-.127 3.56-.38 4.568-.976 8.602-3.806 11.065-7.764 2.296-3.685 2.998-7.952 1.976-12.015z"/>
    <path d="M145.77 94.558c-.003.052-.01.105-.014.157.005-.052.012-.105.015-.157zM110.98 82.273c-.052-.083-.093-.174-.144-.258.052.084.092.175.144.258zM117.426 88.23c-.218-.116-.44-.228-.65-.353.212.126.43.237.65.353zM145.338 96.607c-.133.358-.286.712-.477 1.054.19-.342.347-.694.478-1.053zM109.803 79.99c-.09-.21-.177-.418-.26-.63.083.213.17.42.26.63zM145.63 95.568c-.03.143-.072.283-.11.424.037-.14.082-.28.11-.424z"/>
  </g>
  <g fill="#84BD93">
    <path d="M227.195 34.313c-.546.534-1.086 1.078-1.623 1.632.536-.554 1.078-1.098 1.623-1.632zM228.905 32.688c.53-.49 1.06-.98 1.595-1.453-.536.47-1.065.962-1.595 1.453zM237.4 25.563c13.194-9.147 24.578-10.975 27.492-10.975h-.007c-2.82 0-14.243 1.793-27.488 10.975-.185.128-.362.274-.545.404.184-.13.363-.276.55-.404zM217.19 120.44c-.2.118-.404.222-.608.33.204-.11.41-.212.608-.33zM224.197 112.503c.08-.184.156-.367.228-.555-.073.187-.15.37-.228.555zM219.536 118.776c-.11.094-.214.198-.328.29.114-.092.216-.196.328-.29zM221.075 117.303c.145-.157.29-.31.43-.474-.14.162-.285.317-.43.473zM272.87 19.888c-.11-.117-.226-.224-.337-.338.11.113.228.222.336.338zM274.82 22.43c-.046-.074-.082-.15-.13-.223-.047-.075-.113-.134-.162-.208.096.144.2.282.292.43zM275.825 24.296c.16.345.32.69.458 1.047-.137-.354-.297-.7-.458-1.047zM277.406 31.608c.032-2.063-.33-4.1-1.043-6.03.7 1.9 1.07 3.938 1.043 6.03zM270.197 17.568c.12.085.248.163.367.25-.12-.087-.245-.165-.367-.25zM275.145 22.99c.164.285.33.57.478.865-.147-.294-.313-.58-.478-.866zM267.63 16.082c.08.037.164.067.243.105-.08-.038-.162-.067-.243-.105zM223.015 114.805c.03-.05.055-.105.086-.155-.03.05-.054.105-.085.155zM232.474 29.572c.48-.394.952-.8 1.437-1.18-.483.38-.957.786-1.436 1.18zM271.536 44.097c-.407.352-.83.683-1.267.995.438-.314.86-.642 1.266-.995zM267.996 46.47c.37-.186.732-.38 1.088-.592-.355.21-.718.406-1.088.59z"/>
    <path d="M269.43 42.012c1.886-8.82-3.52-17.535-12.137-19.84-2.908.206-14.296 1.58-27.496 10.732-1.62 1.123-3.206 2.338-4.765 3.614-14.507 15.242-25.763 37.723-32.907 66.103-1.022 4.062-.322 8.33 1.97 12.014 2.464 3.957 6.496 6.787 11.066 7.766 1.175.252 2.372.38 3.557.38 2.54 0 4.952-.634 7.15-1.68.78-1.412 1.383-2.942 1.733-4.578.858-4.005.228-8.183-1.774-11.763-1.678-3.002-1.107-6.76 1.388-9.127 1.436-1.363 3.3-2.065 5.178-2.065.037 0 .075.007.112.007.104-1.866.878-3.68 2.308-5.038 2.493-2.37 6.274-2.743 9.185-.91 1.676 1.057 3.515 1.803 5.466 2.22 1.177.252 2.374.38 3.56.38 2.54 0 4.952-.633 7.148-1.68.782-1.412 1.385-2.94 1.735-4.576 1.227-5.735-.565-11.6-4.795-15.69-2.23-2.154-2.908-5.455-1.71-8.313 1.187-2.834 3.95-4.63 7.042-4.61.046-.84.22-1.68.557-2.487 1.197-2.86 4.01-4.66 7.125-4.613 2.687.076 5.246-.553 7.56-1.65.788-1.42 1.393-2.954 1.744-4.595zM257.32 82.256c.034-.055.06-.116.095-.17-.034.054-.06.115-.095.17zM274.668 40.544c.085-.13.167-.26.25-.393-.083.134-.165.264-.25.394zM258.5 79.957c.082-.188.16-.375.234-.566-.074.192-.152.38-.233.567zM275.997 38.055c.085-.197.167-.394.245-.595-.078.2-.16.398-.245.595zM272.68 43.022c.235-.244.462-.49.68-.75-.22.257-.445.507-.68.75zM252.42 56.955v-.005.005z"/>
    <path d="M223.285 97.348c-.118-.237-.234-.474-.325-.718.09.244.207.48.325.718zM253.512 86.515c.12-.095.225-.203.342-.3-.117.097-.223.205-.342.3zM222.736 95.874c-.024-.09-.052-.18-.072-.273.02.093.05.182.072.274zM255.378 84.755c.147-.16.295-.316.436-.48-.14.163-.29.32-.436.48zM251.5 87.886c-.2.118-.41.224-.615.334.207-.11.414-.215.615-.334zM253.754 60.023c-.053-.078-.103-.158-.154-.238.05.08.1.16.154.238zM222.524 94.643c0-.013-.003-.026-.004-.038 0 .012.003.025.004.038z"/>
  </g>
  <g fill="#CE593F">
    <path d="M189.002 180.038c-1.606-.097-3.223-.163-4.86-.163 1.638 0 3.255.066 4.86.163zM189.944 180.096c1.55.112 3.087.266 4.604.466-1.518-.2-3.053-.354-4.604-.466zM199.752 181.425c-1.45-.292-2.922-.537-4.41-.748 1.488.21 2.96.456 4.41.748zM219.088 188.21c1.33.695 2.636 1.42 3.898 2.19-8.654-3.485-18.398-5.687-28.705-5.687-24.363 0-45.612 10.874-56.607 26.874h15.27c4.155 0 7.522 3.346 7.522 7.5s-3.367 7.5-7.52 7.5h-22.07c-1.126 4-1.176 9.287-1.176 10.965 0 4.44 1.826 8.035 3.202 14.035h27.494c4.154 0 7.52 2.346 7.52 6.5s-3.366 6.5-7.52 6.5h-27.03l6.965.015 13.56 22.985h19.96c4.153 0 7.52 3.846 7.52 8s-3.367 8-7.52 8h-10.294l20.586 32.504 56.286-78.45c.025-.034.054-.078.08-.11.02-.034.04-.076.062-.11 5.335-7.714 8.154-16.483 8.154-25.35.002-18.378-11.823-34.558-29.636-43.86zM209.66 184.13c-1.416-.494-2.862-.942-4.328-1.355 1.466.413 2.912.86 4.328 1.355zM214.173 185.88c-1.345-.573-2.718-1.108-4.117-1.605 1.4.498 2.772 1.033 4.117 1.606zM204.556 182.562c-1.478-.4-2.973-.767-4.497-1.08 1.522.314 3.02.68 4.496 1.08zM218.545 187.93c-1.32-.675-2.665-1.316-4.046-1.913 1.38.596 2.726 1.238 4.045 1.912z"/>
  </g>
  <path d="M287.318 14.032C282.683 6.874 275.538 1.952 267.2.166 266.71.06 265.6 0 265.6 0c-2.37 0-54.017.966-81.46 77.19C156.693.978 105.056 0 102.684 0c0 0-1.106.06-1.6.166C83.876 3.848 72.87 20.848 76.55 38.063c2.257 10.544 9.706 19.006 19.287 22.905-2.493 5.914-3.162 12.527-1.766 19.053 3.133 14.63 16.25 25.248 31.193 25.247.805 0 1.61-.03 2.416-.092-.057 2.467.174 4.95.698 7.397 3.132 14.63 16.25 25.248 31.193 25.247 2.243 0 4.5-.24 6.705-.713 3.692-.79 7.186-2.244 10.348-4.222v32.257c-40.39 3.212-72.102 31.995-72.102 66.925 0 11.95 3.75 23.682 10.84 33.93.045.063.097.116.142.178.047.07.087.143.137.212l60.983 84.974v9.413c0 4.154 3.367 7.52 7.52 7.52 4.155 0 7.522-3.366 7.522-7.52v-9.41l60.985-84.976c.047-.066.085-.135.13-.2.054-.074.113-.14.165-.216 7.08-10.24 10.824-21.964 10.824-33.903 0-34.93-31.716-63.713-72.104-66.925v-32.257c3.162 1.977 6.657 3.432 10.35 4.222 2.207.472 4.463.712 6.704.712 14.942 0 28.06-10.62 31.192-25.247.524-2.45.755-4.932.7-7.398.805.06 1.61.092 2.416.092 14.943 0 28.06-10.617 31.192-25.247 1.395-6.526.727-13.138-1.767-19.05 9.58-3.9 17.03-12.36 19.287-22.907 1.78-8.338.212-16.873-4.422-24.03zm-27.19 34.224c-3.116-.047-5.93 1.754-7.127 4.613-1.197 2.857-.517 6.16 1.712 8.313 4.23 4.087 6.023 9.953 4.796 15.69-1.656 7.736-8.588 13.352-16.483 13.352-1.186 0-2.383-.127-3.56-.38-1.952-.416-3.79-1.162-5.466-2.218-2.912-1.834-6.693-1.46-9.186.91-2.494 2.366-3.065 6.123-1.387 9.125 2.002 3.578 2.63 7.756 1.773 11.763-1.656 7.737-8.588 13.353-16.483 13.353-1.186 0-2.383-.127-3.557-.38-4.57-.977-8.602-3.807-11.065-7.765-2.294-3.685-2.994-7.952-1.97-12.013 9.062-36.002 24.717-62.563 45.27-76.815 13.245-9.183 24.668-10.535 27.488-10.732 4.052 1.08 7.51 3.588 9.806 7.133 2.45 3.785 3.28 8.298 2.336 12.708-1.682 7.872-8.82 13.57-16.9 13.342zm-19.556 209.16c-.023.033-.04.068-.063.102-.027.033-.055.065-.08.1l-56.286 78.426-23.363-32.553h13.07c4.154 0 7.52-3.366 7.52-7.52s-3.366-7.52-7.52-7.52h-23.864l-16.62-23.16h27.03c4.155 0 7.522-3.366 7.522-7.52s-3.367-7.52-7.52-7.52h-36.773c-2.67-5.793-4.063-11.963-4.063-18.185 0-1.678.108-3.337.3-4.977h33.083c4.154 0 7.52-3.367 7.52-7.52 0-4.155-3.366-7.522-7.52-7.522H124.51c9.735-18.872 32.796-32.174 59.633-32.174 35.61 0 64.582 23.413 64.582 52.192 0 8.87-2.82 17.638-8.153 25.352zM159.57 122.778c-7.896 0-14.828-5.615-16.484-13.354-.858-4.005-.228-8.183 1.774-11.763 1.677-3 1.106-6.758-1.39-9.125-1.436-1.363-3.3-2.065-5.177-2.065-1.383 0-2.774.38-4.007 1.158-1.675 1.056-3.513 1.802-5.467 2.22-1.175.25-2.372.378-3.558.378-7.895 0-14.827-5.615-16.483-13.352-1.228-5.736.564-11.602 4.794-15.69 2.23-2.155 2.91-5.456 1.71-8.314-1.198-2.86-4-4.668-7.125-4.613-8.036.214-15.218-5.47-16.902-13.34-1.887-8.82 3.52-17.536 12.136-19.84 2.907.205 14.296 1.58 27.496 10.73 20.554 14.25 36.21 40.813 45.273 76.812 1.02 4.062.32 8.33-1.973 12.015-2.463 3.957-6.495 6.787-11.063 7.765-1.174.25-2.37.378-3.557.378z" fill="#3F2D20"/>
</svg>
