<svg xmlns="http://www.w3.org/2000/svg" width="933.333" height="933.333" viewBox="0 0 700 700">
    <path d="M329 1C222.4 8 127.7 60.5 65.3 147.1 36.6 186.9 16.1 235 6.6 284.5c-7.8 40.5-8 87.2-.5 128.5 22.5 124.9 113.1 229 234.2 269.1 78.8 26 165.7 23.1 241.9-8.2C590.1 629.6 669.4 534 692.5 420.5c5.3-26.2 6.9-42.3 6.9-70.5 0-17-.6-29-1.8-39-8-67.1-33.3-127.9-75.2-180.5-11.7-14.7-38-40.8-53.4-53.1C515.5 34.8 454.9 9.8 388 2.6 370.2.7 344.5 0 329 1zm44 91.5c31.9 3.8 60.9 14.3 87.2 31.4 68.6 44.7 103.7 127.6 87.7 207.2-7.5 37.5-25.5 72.7-51 99.4-5.2 5.5-19.4 22.1-31.5 37-12.1 14.8-33.2 40.7-46.9 57.5-13.7 16.8-34.6 42.3-46.3 56.7-11.8 14.5-21.8 26.3-22.2 26.3-.4 0-6.3-6.9-13.2-15.3-6.8-8.3-35.5-43.6-63.8-78.2-62.5-76.7-58.7-72.1-68.6-82.7-27.3-29-45-63.3-52.4-101.5-13.7-71 12.7-145.2 68.4-192C262.5 102.9 319 85.9 373 92.5z"/>
    <path d="M456 189.6c-5.2 1.3-18 4.2-28.5 6.4-23.5 5.1-30.5 8.1-40.4 17.9-11.3 11.1-19.2 29.9-19 45.1.1 3 .4 6.6.8 8 .6 2.3 1 1.9 4.4-4.5 9.9-18.7 27.7-36.1 40-39 4.4-1.1 3.3 1.2-4.4 10-12.2 13.7-23.1 31.4-32.5 52.5-6.7 15.1-9.4 22.5-22.3 60.9-6.4 18.9-12 34.3-12.6 34.3-1.5 0-4.6-10-12.5-39.8-10.9-41-20.5-68.2-30-84.8-8.9-15.5-27.5-37.6-41.3-49-10.6-8.7-24.7-16-24.7-12.8 0 .4 2.5 3.6 5.6 7.1 19.9 22.8 36.3 48.1 47.5 73.1 12.5 28 28.2 82.4 41.4 143.5 2 9.3 4.2 17.3 4.8 17.7.7.4 5.1.8 9.9.8 8.7 0 8.8 0 10.3-3 .8-1.6 3.1-12.7 5-24.7 5.1-31.1 8-45.4 13.6-65.1 8.6-30.2 18.7-55.6 24.8-62 2.1-2.3 4.5-3.2 13.6-5.1 14.5-2.9 26.6-8.7 35.5-16.9 11.7-10.8 14.7-18.1 17-42.5.6-6.6 2.2-15.9 3.5-20.7 2.1-8.2 2.2-10.2.6-9.9-.3.1-4.9 1.2-10.1 2.5z"/>
</svg>
