<?xml version="1.0" standalone="no"?>
<!DOCTYPE svg PUBLIC "-//W3C//DTD SVG 20010904//EN"
 "http://www.w3.org/TR/2001/REC-SVG-20010904/DTD/svg10.dtd">
<svg version="1.0" xmlns="http://www.w3.org/2000/svg"
 width="700.000000pt" height="700.000000pt" viewBox="0 0 700.000000 700.000000"
 preserveAspectRatio="xMidYMid meet">
<metadata>
Created by potrace 1.11, written by Peter Selinger 2001-2013
</metadata>
<g transform="translate(0.000000,700.000000) scale(0.100000,-0.100000)"
fill="#000000" stroke="none">
<path d="M3290 6990 c-1066 -70 -2013 -595 -2637 -1461 -287 -398 -492 -879
-587 -1374 -78 -405 -80 -872 -5 -1285 225 -1249 1131 -2290 2342 -2691 788
-260 1657 -231 2419 82 1079 443 1872 1399 2103 2534 53 262 69 423 69 705 0
170 -6 290 -18 390 -80 671 -333 1279 -752 1805 -117 147 -380 408 -534 531
-535 426 -1141 676 -1810 748 -178 19 -435 26 -590 16z m440 -915 c319 -38
609 -143 872 -314 686 -447 1037 -1276 877 -2072 -75 -375 -255 -727 -510
-994 -52 -55 -194 -221 -315 -370 -121 -148 -332 -407 -469 -575 -137 -168
-346 -423 -463 -567 -118 -145 -218 -263 -222 -263 -4 0 -63 69 -132 153 -68
83 -355 436 -638 782 -625 767 -587 721 -686 827 -273 290 -450 633 -524 1015
-137 710 127 1452 684 1920 421 354 986 524 1526 458z"/>
<path d="M4560 5104 c-52 -13 -180 -42 -285 -64 -235 -51 -305 -81 -404 -179
-113 -111 -192 -299 -190 -451 1 -30 4 -66 8 -80 6 -23 10 -19 44 45 99 187
277 361 400 390 44 11 33 -12 -44 -100 -122 -137 -231 -314 -325 -525 -67
-151 -94 -225 -223 -609 -64 -189 -120 -343 -126 -343 -15 0 -46 100 -125 398
-109 410 -205 682 -300 848 -89 155 -275 376 -413 490 -106 87 -247 160 -247
128 0 -4 25 -36 56 -71 199 -228 363 -481 475 -731 125 -280 282 -824 414
-1435 20 -93 42 -173 48 -177 7 -4 51 -8 99 -8 87 0 88 0 103 30 8 16 31 127
50 247 51 311 80 454 136 651 86 302 187 556 248 620 21 23 45 32 136 51 145
29 266 87 355 169 117 108 147 181 170 425 6 66 22 159 35 207 21 82 22 102 6
99 -3 -1 -49 -12 -101 -25z"/>
</g>
</svg>
