<?xml version="1.0" standalone="no"?>
<!DOCTYPE svg PUBLIC "-//W3C//DTD SVG 20010904//EN"
 "http://www.w3.org/TR/2001/REC-SVG-20010904/DTD/svg10.dtd">
<svg version="1.0" xmlns="http://www.w3.org/2000/svg"
 width="700.000000pt" height="700.000000pt" viewBox="0 0 700.000000 700.000000"
 preserveAspectRatio="xMidYMid meet">
<metadata>
Created by potrace 1.11, written by Peter Selinger 2001-2013
</metadata>
<g transform="translate(0.000000,700.000000) scale(0.100000,-0.100000)"
fill="#000000" stroke="none">
<path d="M3278 6996 c-1 -2 -41 -6 -88 -10 -47 -4 -96 -8 -110 -10 -14 -2 -47
-7 -73 -11 -27 -4 -56 -8 -65 -10 -10 -1 -37 -6 -62 -9 -25 -3 -60 -10 -77
-15 -18 -5 -33 -8 -33 -6 0 3 -11 0 -26 -5 -14 -6 -39 -12 -57 -15 -59 -11
-182 -46 -302 -86 -306 -104 -635 -269 -867 -434 -31 -22 -66 -47 -78 -55 -45
-30 -187 -145 -265 -214 -361 -321 -680 -754 -865 -1176 -23 -52 -46 -104 -51
-115 -41 -89 -127 -360 -168 -525 -24 -101 -59 -300 -66 -380 -2 -19 -7 -69
-11 -110 -16 -146 -9 -617 11 -719 2 -12 6 -48 9 -80 12 -131 82 -428 142
-609 80 -239 199 -499 316 -690 35 -57 68 -111 73 -121 26 -44 135 -193 208
-284 197 -245 436 -470 692 -653 61 -44 120 -84 130 -91 165 -100 214 -128
295 -171 210 -111 598 -258 750 -285 14 -3 52 -12 85 -20 33 -8 78 -18 100
-23 22 -4 45 -8 50 -9 16 -4 156 -24 205 -30 25 -3 61 -8 80 -11 64 -9 533
-12 624 -3 206 20 393 49 511 81 22 5 51 12 65 15 14 2 63 15 110 29 305 91
540 193 830 361 19 11 82 52 140 90 458 305 849 727 1117 1208 56 100 156 306
168 345 4 14 11 30 15 35 11 13 74 192 111 314 30 96 83 316 93 384 3 20 9 54
12 75 3 20 7 44 9 52 2 8 7 42 11 75 3 33 8 74 11 90 2 17 6 143 8 280 3 251
-3 356 -30 550 -1 11 -6 43 -10 70 -10 77 -63 310 -91 405 -72 243 -130 390
-245 616 -293 579 -752 1074 -1309 1411 -103 62 -311 170 -400 208 -36 15 -83
36 -106 45 -142 63 -497 164 -684 195 -52 9 -106 18 -120 20 -14 3 -52 7 -86
11 -33 3 -74 8 -90 10 -33 5 -540 14 -546 10z"/>
</g>
</svg>
